<?xml version="1.0" standalone="no"?>
<!DOCTYPE svg PUBLIC "-//W3C//DTD SVG 20010904//EN"
 "http://www.w3.org/TR/2001/REC-SVG-20010904/DTD/svg10.dtd">
<svg version="1.0" xmlns="http://www.w3.org/2000/svg"
 width="375.000000pt" height="432.000000pt" viewBox="0 0 375.000000 432.000000"
 preserveAspectRatio="xMidYMid meet">
<metadata>
Created by potrace 1.15, written by Peter Selinger 2001-2017
</metadata>
<g transform="translate(0.000000,432.000000) scale(0.100000,-0.100000)"
fill="#000000" stroke="none">
<path d="M1515 2920 c-43 -9 -141 -45 -164 -59 -11 -7 -26 -104 -57 -358 -23
-191 -45 -365 -48 -387 l-4 -39 51 6 c29 3 86 19 127 35 172 69 316 65 408
-13 l30 -25 51 34 c101 68 237 70 398 6 43 -17 99 -34 126 -37 45 -5 47 -5 47
18 0 13 -20 188 -45 388 -30 248 -48 367 -57 372 -27 18 -125 51 -178 61 -87
16 -217 5 -281 -24 l-54 -24 -55 25 c-44 20 -73 25 -155 27 -55 2 -118 -1
-140 -6z m710 -106 c33 -8 64 -19 68 -23 8 -8 80 -581 74 -587 -2 -3 -21 3
-43 12 -71 30 -138 44 -229 46 -69 1 -76 3 -32 5 l58 4 -6 97 c-4 53 -12 179
-18 280 l-12 182 40 0 c23 0 68 -7 100 -16z"/>
<path d="M2650 1870 c0 -25 4 -30 25 -30 l25 0 0 -220 0 -220 24 0 c13 0 26 7
29 15 5 12 10 12 34 0 59 -31 128 -13 177 45 22 26 26 41 26 92 0 65 -15 101
-57 132 -35 26 -94 32 -132 13 l-31 -15 0 109 0 109 -60 0 -60 0 0 -30z m249
-256 c47 -60 8 -149 -63 -147 -55 2 -66 16 -66 89 0 72 10 83 72 84 28 0 41
-6 57 -26z"/>
<path d="M732 1818 c2 -28 8 -34 31 -36 l27 -3 0 -155 0 -154 -31 0 c-28 0
-30 -2 -27 -32 l3 -33 160 0 160 0 0 65 0 65 -37 3 c-37 3 -38 3 -38 -32 l0
-36 -60 0 -60 0 0 155 0 155 30 0 c28 0 30 3 30 35 l0 35 -96 0 -95 0 3 -32z"/>
<path d="M1150 1692 c-108 -54 -108 -220 0 -274 72 -37 183 -14 193 38 3 16 4
30 2 32 -2 2 -26 -4 -55 -12 -63 -19 -104 -12 -131 23 l-21 26 109 5 108 5 -1
43 c-1 71 -66 132 -139 132 -16 0 -46 -8 -65 -18z"/>
<path d="M1433 1695 c-52 -22 -70 -75 -33 -95 28 -15 60 -3 60 21 0 47 80 33
90 -16 l6 -30 -67 0 c-58 0 -71 -4 -93 -24 -43 -40 -35 -111 15 -136 36 -19
70 -19 114 -1 30 13 35 13 35 1 0 -11 26 -14 135 -14 l135 -1 0 35 c0 28 -4
35 -20 35 -18 0 -20 7 -20 70 0 63 2 71 24 85 14 9 37 15 53 13 28 -3 28 -3
31 -85 3 -78 2 -83 -18 -83 -16 0 -20 -6 -20 -35 l0 -35 80 0 80 0 0 35 c0 28
-4 35 -20 35 -18 0 -20 7 -20 75 0 91 -18 141 -57 156 -34 13 -89 5 -113 -16
-21 -19 -30 -19 -30 0 0 12 -13 15 -55 15 -54 0 -55 0 -55 -30 0 -24 4 -30 23
-30 21 0 22 -3 19 -85 l-3 -85 -45 0 -44 0 0 86 c0 47 -5 94 -11 106 -23 43
-114 60 -176 33z"/>
<path d="M2138 1694 c-16 -8 -28 -10 -28 -4 0 6 -24 10 -55 10 -54 0 -55 0
-55 -30 0 -23 4 -30 20 -30 19 0 20 -7 20 -150 0 -143 -1 -150 -20 -150 -16 0
-20 -7 -20 -30 l0 -30 85 0 85 0 0 30 c0 26 -4 30 -27 30 -26 0 -28 3 -28 40
0 32 3 39 15 33 33 -15 89 -14 121 1 107 51 113 222 9 277 -41 23 -85 24 -122
3z m88 -62 c17 -11 34 -48 34 -76 0 -67 -47 -103 -110 -82 l-34 11 3 65 c1 46
7 69 18 78 18 13 71 16 89 4z"/>
<path d="M2330 1670 c0 -23 4 -30 20 -30 18 0 20 -7 20 -75 0 -83 17 -137 48
-154 31 -17 73 -13 115 9 l37 20 0 -20 c0 -18 7 -20 55 -20 l55 0 0 35 c0 28
-4 35 -20 35 -19 0 -20 7 -20 115 l0 115 -60 0 -60 0 0 -30 c0 -23 4 -30 20
-30 18 0 20 -7 20 -70 0 -63 -2 -71 -24 -85 -14 -9 -37 -15 -53 -13 l-28 3 -3
113 -3 112 -59 0 c-60 0 -60 0 -60 -30z"/>
</g>
</svg>
