<svg height="480pt" viewBox="-8 0 480 480" width="480pt" xmlns="http://www.w3.org/2000/svg"><path d="m440 136v320c-.027344 8.824219-7.175781 15.972656-16 16h-400c-8.824219-.027344-15.972656-7.175781-16-16v-320zm0 0" fill="#78b9eb"/><path d="m424 72h-400c-8.824219.027344-15.972656 7.175781-16 16v48h432v-48c-.027344-8.824219-7.175781-15.972656-16-16zm0 0" fill="#ff6243"/><path d="m258.878906 378.960938-34.878906 29.039062-34.878906-29.039062 10.878906-2.960938v-22.480469c14.832031 8.640625 33.167969 8.640625 48 0v22.480469zm0 0" fill="#ffdaaa"/><path d="m296 472h-184v-35.359375c.03125-21.636719 14.5-40.589844 35.359375-46.320313l41.761719-11.359374 34.878906 29.039062 34.878906-29.039062 41.761719 11.359374c20.859375 5.730469 35.328125 24.683594 35.359375 46.320313v35.359375zm0 0" fill="#00ccb3"/><path d="m272 291.601562v20.398438c.007812 17.136719-9.144531 32.972656-24 41.519531-14.832031 8.640625-33.167969 8.640625-48 0-3.636719-2.070312-6.972656-4.625-9.921875-7.597656-9.042969-8.964844-14.117187-21.1875-14.078125-33.921875v-20.398438c15.109375 7.027344 31.378906 11.230469 48 12.398438 16.621094-1.167969 32.890625-5.371094 48-12.398438zm0 0" fill="#ffdaaa"/><path d="m280 234.480469v53.519531s-3.039062 1.519531-8 3.601562c-15.109375 7.027344-31.378906 11.230469-48 12.398438-16.621094-1.167969-32.890625-5.371094-48-12.398438-4.960938-2.082031-8-3.601562-8-3.601562v-53.519531l56 21.519531zm0 0" fill="#acabb1"/><path d="m328 216-48 18.480469-56 21.519531-56-21.519531-48-18.480469 104-40zm0 0" fill="#c6c5ca"/><path d="m440 8h-160c-8.824219.027344-15.972656 7.175781-16 16v96c.027344 8.824219 7.175781 15.972656 16 16h32v40l32-40h96c8.824219-.027344 15.972656-7.175781 16-16v-96c-.027344-8.824219-7.175781-15.972656-16-16zm0 0" fill="#ffd422"/><path d="m248 353.519531v8c-14.832031 8.640625-33.167969 8.640625-48 0v-8c14.832031 8.640625 33.167969 8.640625 48 0zm0 0" fill="#f2ca96"/><path d="m432 456c0 4.417969-3.582031 8-8 8h-80v-27.359375c-.078125-25.226563-16.941406-47.316406-41.257812-54.039063l-46.742188-12.714843v-12.109375c14.984375-10.433594 23.941406-27.519532 24-45.777344v-15.144531c2.039062-.933594 3.328125-1.597657 3.574219-1.695313 2.714843-1.355468 4.425781-4.128906 4.425781-7.160156v-48l42.871094-16.488281c3.097656-1.183594 5.144531-4.15625 5.144531-7.472657 0-3.316406-2.046875-6.285156-5.144531-7.472656l-104-40c-1.847656-.703125-3.894532-.703125-5.742188 0l-104 40c-3.078125 1.183594-5.113281 4.136719-5.128906 7.433594v36.6875l-21.65625 21.65625 11.3125 11.3125 10.34375-10.34375v12.6875h16v-12.6875l10.34375 10.34375 11.3125-11.3125-21.65625-21.65625v-25.039062l32 12.351562v48c-.015625 3.046875 1.699219 5.839844 4.425781 7.199219.246094.121093 1.535157.761719 3.574219 1.695312v15.105469c-.140625 18.3125 8.859375 35.492188 24 45.800781v12.085938l-46.769531 12.722656c-24.300781 6.726563-41.15625 28.8125-41.230469 54.03125v27.359375h-80c-4.417969 0-8-3.582031-8-8v-312h224v-16h-224v-40c0-4.417969 3.582031-8 8-8h216v-16h-216c-13.253906 0-24 10.746094-24 24v368c0 13.253906 10.746094 24 24 24h400c13.253906 0 24-10.746094 24-24v-296h-16zm-224-80v-10.398438c10.425781 3.207032 21.574219 3.207032 32 0v10.398438c.027344 2.292969 1.042969 4.460938 2.792969 5.945312l-18.792969 15.65625-18.792969-15.648437c1.75-1.484375 2.769531-3.65625 2.792969-5.953125zm16-191.433594 81.710938 31.433594-81.710938 31.433594-81.710938-31.433594zm-2.871094 78.90625c1.847656.703125 3.894532.703125 5.742188 0l45.128906-17.359375v36.796875c-15.070312 7.25-31.335938 11.6875-48 13.089844-16.664062-1.414062-32.929688-5.851562-48-13.097656v-36.796875zm-37.128906 48.527344v-8.585938c12.769531 5.042969 26.285156 7.945313 40 8.585938 13.714844-.640625 27.230469-3.542969 40-8.585938v8.585938c-.019531 14.292969-7.664062 27.492188-20.054688 34.621094-12.390624 7.128906-27.644531 7.101562-40.007812-.070313-3.019531-1.714843-5.785156-3.839843-8.226562-6.3125-7.539063-7.453125-11.761719-17.632812-11.710938-28.238281zm-64 124.640625c.058594-18.015625 12.101562-33.792969 29.464844-38.601563l37.734375-10.261718 31.679687 26.398437c2.96875 2.472657 7.273438 2.472657 10.242188 0l31.679687-26.398437 37.710938 10.253906c17.371093 4.804688 29.421875 20.585938 29.488281 38.609375v27.359375h-24v-32h-16v32h-128v-32h-16v32h-24zm0 0"/><path d="m48 96h16v16h-16zm0 0"/><path d="m80 96h16v16h-16zm0 0"/><path d="m112 96h16v16h-16zm0 0"/><path d="m440 0h-160c-13.253906 0-24 10.746094-24 24v96c0 13.253906 10.746094 24 24 24h24v32c0 3.398438 2.144531 6.425781 5.351562 7.550781.851563.292969 1.746094.445313 2.648438.449219 2.429688 0 4.730469-1.101562 6.246094-3l29.59375-37h92.160156c13.253906 0 24-10.746094 24-24v-96c0-13.253906-10.746094-24-24-24zm8 120c0 4.417969-3.582031 8-8 8h-96c-2.429688 0-4.730469 1.101562-6.246094 3l-17.753906 22.191406v-17.191406c0-4.417969-3.582031-8-8-8h-32c-4.417969 0-8-3.582031-8-8v-96c0-4.417969 3.582031-8 8-8h160c4.417969 0 8 3.582031 8 8zm0 0"/><path d="m304 32h112v16h-112zm0 0"/><path d="m304 64h112v16h-112zm0 0"/><path d="m304 96h112v16h-112zm0 0"/></svg>